<svg width="237.5" height="50" viewbox="0 0 237.5 50" version="1.1" xmlns="http://www.w3.org/2000/svg"><desc>|010556006812754000000200120000473000000005000075282001</desc><g id="bars" fill="black" stroke="none"><rect x="0" y="0" width="1" height="50"></rect><rect x="1.5" y="0" width="0.5" height="50"></rect><rect x="3" y="0" width="0.5" height="50"></rect><rect x="5.5" y="0" width="0.5" height="50"></rect><rect x="6.5" y="0" width="0.5" height="50"></rect><rect x="7.5" y="0" width="2" height="50"></rect><rect x="11" y="0" width="0.5" height="50"></rect><rect x="12.5" y="0" width="1.5" height="50"></rect><rect x="14.5" y="0" width="1" height="50"></rect><rect x="16.5" y="0" width="0.5" height="50"></rect><rect x="17.5" y="0" width="1.5" height="50"></rect><rect x="19.5" y="0" width="2" height="50"></rect><rect x="22" y="0" width="1" height="50"></rect><rect x="24" y="0" width="0.5" height="50"></rect><rect x="26" y="0" width="0.5" height="50"></rect><rect x="27.5" y="0" width="1.5" height="50"></rect><rect x="29.5" y="0" width="0.5" height="50"></rect><rect x="31.5" y="0" width="1" height="50"></rect><rect x="33" y="0" width="1.5" height="50"></rect><rect x="35" y="0" width="2" height="50"></rect><rect x="37.5" y="0" width="0.5" height="50"></rect><rect x="38.5" y="0" width="0.5" height="50"></rect><rect x="40" y="0" width="1" height="50"></rect><rect x="42" y="0" width="0.5" height="50"></rect><rect x="44" y="0" width="0.5" height="50"></rect><rect x="45.5" y="0" width="0.5" height="50"></rect><rect x="46.5" y="0" width="2" height="50"></rect><rect x="49.5" y="0" width="1.5" height="50"></rect><rect x="51.5" y="0" width="1" height="50"></rect><rect x="53.5" y="0" width="0.5" height="50"></rect><rect x="55" y="0" width="1.5" height="50"></rect><rect x="57" y="0" width="0.5" height="50"></rect><rect x="58" y="0" width="1" height="50"></rect><rect x="60.5" y="0" width="1.5" height="50"></rect><rect x="62.5" y="0" width="0.5" height="50"></rect><rect x="63.5" y="0" width="2" height="50"></rect><rect x="66" y="0" width="2" height="50"></rect><rect x="68.5" y="0" width="1.5" height="50"></rect><rect x="70.5" y="0" width="0.5" height="50"></rect><rect x="71.5" y="0" width="0.5" height="50"></rect><rect x="72.5" y="0" width="1.5" height="50"></rect><rect x="74.5" y="0" width="2" height="50"></rect><rect x="77" y="0" width="1" height="50"></rect><rect x="78.5" y="0" width="1" height="50"></rect><rect x="80.5" y="0" width="1" height="50"></rect><rect x="82.5" y="0" width="1" height="50"></rect><rect x="84" y="0" width="1" height="50"></rect><rect x="86" y="0" width="1" height="50"></rect><rect x="88" y="0" width="1" height="50"></rect><rect x="89.5" y="0" width="1" height="50"></rect><rect x="91.5" y="0" width="1" height="50"></rect><rect x="93.5" y="0" width="1" height="50"></rect><rect x="95.5" y="0" width="0.5" height="50"></rect><rect x="97" y="0" width="1.5" height="50"></rect><rect x="99" y="0" width="1" height="50"></rect><rect x="101" y="0" width="1" height="50"></rect><rect x="102.5" y="0" width="1" height="50"></rect><rect x="104.5" y="0" width="1" height="50"></rect><rect x="106.5" y="0" width="0.5" height="50"></rect><rect x="108" y="0" width="1.5" height="50"></rect><rect x="110" y="0" width="1" height="50"></rect><rect x="111.5" y="0" width="1" height="50"></rect><rect x="113.5" y="0" width="1" height="50"></rect><rect x="115.5" y="0" width="0.5" height="50"></rect><rect x="117" y="0" width="0.5" height="50"></rect><rect x="119" y="0" width="1" height="50"></rect><rect x="121" y="0" width="0.5" height="50"></rect><rect x="123.5" y="0" width="1" height="50"></rect><rect x="125" y="0" width="0.5" height="50"></rect><rect x="126.5" y="0" width="1.5" height="50"></rect><rect x="128.5" y="0" width="0.5" height="50"></rect><rect x="129.5" y="0" width="2" height="50"></rect><rect x="132" y="0" width="2" height="50"></rect><rect x="134.5" y="0" width="1.5" height="50"></rect><rect x="136.5" y="0" width="0.5" height="50"></rect><rect x="137.5" y="0" width="0.5" height="50"></rect><rect x="138.5" y="0" width="1.5" height="50"></rect><rect x="140.5" y="0" width="2" height="50"></rect><rect x="143" y="0" width="1" height="50"></rect><rect x="144.5" y="0" width="1" height="50"></rect><rect x="146.5" y="0" width="1" height="50"></rect><rect x="148.5" y="0" width="1" height="50"></rect><rect x="150" y="0" width="1" height="50"></rect><rect x="152" y="0" width="1" height="50"></rect><rect x="154" y="0" width="1" height="50"></rect><rect x="155.5" y="0" width="1" height="50"></rect><rect x="157.5" y="0" width="1" height="50"></rect><rect x="159.5" y="0" width="1" height="50"></rect><rect x="161" y="0" width="1" height="50"></rect><rect x="163" y="0" width="1" height="50"></rect><rect x="165" y="0" width="1" height="50"></rect><rect x="167.5" y="0" width="0.5" height="50"></rect><rect x="168.5" y="0" width="1.5" height="50"></rect><rect x="170.5" y="0" width="1" height="50"></rect><rect x="172" y="0" width="1" height="50"></rect><rect x="174" y="0" width="1" height="50"></rect><rect x="176" y="0" width="0.5" height="50"></rect><rect x="177.5" y="0" width="1" height="50"></rect><rect x="180" y="0" width="0.5" height="50"></rect><rect x="181.5" y="0" width="1" height="50"></rect><rect x="183" y="0" width="1.5" height="50"></rect><rect x="186" y="0" width="0.5" height="50"></rect><rect x="187" y="0" width="0.5" height="50"></rect><rect x="188.5" y="0" width="0.5" height="50"></rect><rect x="190" y="0" width="2" height="50"></rect><rect x="192.5" y="0" width="1.5" height="50"></rect><rect x="194.5" y="0" width="0.5" height="50"></rect><rect x="195.5" y="0" width="2" height="50"></rect><rect x="198" y="0" width="2" height="50"></rect><rect x="200.5" y="0" width="1.5" height="50"></rect><rect x="202.5" y="0" width="0.5" height="50"></rect><rect x="203.5" y="0" width="0.5" height="50"></rect><rect x="204.5" y="0" width="2" height="50"></rect><rect x="207" y="0" width="1.5" height="50"></rect><rect x="209" y="0" width="0.5" height="50"></rect><rect x="210.5" y="0" width="1.5" height="50"></rect><rect x="212.5" y="0" width="1" height="50"></rect><rect x="214.5" y="0" width="0.5" height="50"></rect><rect x="216" y="0" width="1.5" height="50"></rect><rect x="218" y="0" width="1" height="50"></rect><rect x="220" y="0" width="0.5" height="50"></rect><rect x="221.5" y="0" width="1.5" height="50"></rect><rect x="224" y="0" width="1" height="50"></rect><rect x="225.5" y="0" width="1" height="50"></rect><rect x="228" y="0" width="0.5" height="50"></rect><rect x="229" y="0" width="1.5" height="50"></rect><rect x="231" y="0" width="1" height="50"></rect><rect x="233.5" y="0" width="1.5" height="50"></rect><rect x="235.5" y="0" width="0.5" height="50"></rect><rect x="236.5" y="0" width="1" height="50"></rect><rect x="237.5" y="0" width="0" height="50"></rect><rect x="237.5" y="0" width="0" height="50"></rect></g></svg>