<?xml version="1.0" standalone="no" ?>
<!DOCTYPE svg PUBLIC "-//W3C//DTD SVG 1.1//EN" "http://www.w3.org/Graphics/SVG/1.1/DTD/svg11.dtd">
<svg width="475" height="60" viewBox="0 0 475 60" version="1.1" xmlns="http://www.w3.org/2000/svg">
	<desc>|010556006812754000000200116000801000002017112800001100</desc>
	<g id="bars" fill="black" stroke="none">
		<rect x="0" y="0" width="2" height="60" />
		<rect x="3" y="0" width="1" height="60" />
		<rect x="6" y="0" width="1" height="60" />
		<rect x="11" y="0" width="1" height="60" />
		<rect x="13" y="0" width="1" height="60" />
		<rect x="15" y="0" width="4" height="60" />
		<rect x="22" y="0" width="1" height="60" />
		<rect x="25" y="0" width="3" height="60" />
		<rect x="29" y="0" width="2" height="60" />
		<rect x="33" y="0" width="1" height="60" />
		<rect x="35" y="0" width="3" height="60" />
		<rect x="39" y="0" width="4" height="60" />
		<rect x="44" y="0" width="2" height="60" />
		<rect x="48" y="0" width="1" height="60" />
		<rect x="52" y="0" width="1" height="60" />
		<rect x="55" y="0" width="3" height="60" />
		<rect x="59" y="0" width="1" height="60" />
		<rect x="63" y="0" width="2" height="60" />
		<rect x="66" y="0" width="3" height="60" />
		<rect x="70" y="0" width="4" height="60" />
		<rect x="75" y="0" width="1" height="60" />
		<rect x="77" y="0" width="1" height="60" />
		<rect x="80" y="0" width="2" height="60" />
		<rect x="84" y="0" width="1" height="60" />
		<rect x="88" y="0" width="1" height="60" />
		<rect x="91" y="0" width="1" height="60" />
		<rect x="93" y="0" width="4" height="60" />
		<rect x="99" y="0" width="3" height="60" />
		<rect x="103" y="0" width="2" height="60" />
		<rect x="107" y="0" width="1" height="60" />
		<rect x="110" y="0" width="3" height="60" />
		<rect x="114" y="0" width="1" height="60" />
		<rect x="116" y="0" width="2" height="60" />
		<rect x="121" y="0" width="3" height="60" />
		<rect x="125" y="0" width="1" height="60" />
		<rect x="127" y="0" width="4" height="60" />
		<rect x="132" y="0" width="4" height="60" />
		<rect x="137" y="0" width="3" height="60" />
		<rect x="141" y="0" width="1" height="60" />
		<rect x="143" y="0" width="1" height="60" />
		<rect x="145" y="0" width="3" height="60" />
		<rect x="149" y="0" width="4" height="60" />
		<rect x="154" y="0" width="2" height="60" />
		<rect x="157" y="0" width="2" height="60" />
		<rect x="161" y="0" width="2" height="60" />
		<rect x="165" y="0" width="2" height="60" />
		<rect x="168" y="0" width="2" height="60" />
		<rect x="172" y="0" width="2" height="60" />
		<rect x="176" y="0" width="2" height="60" />
		<rect x="179" y="0" width="2" height="60" />
		<rect x="183" y="0" width="2" height="60" />
		<rect x="187" y="0" width="2" height="60" />
		<rect x="191" y="0" width="1" height="60" />
		<rect x="194" y="0" width="3" height="60" />
		<rect x="198" y="0" width="2" height="60" />
		<rect x="202" y="0" width="2" height="60" />
		<rect x="205" y="0" width="2" height="60" />
		<rect x="209" y="0" width="1" height="60" />
		<rect x="212" y="0" width="3" height="60" />
		<rect x="216" y="0" width="2" height="60" />
		<rect x="220" y="0" width="2" height="60" />
		<rect x="223" y="0" width="2" height="60" />
		<rect x="227" y="0" width="2" height="60" />
		<rect x="231" y="0" width="1" height="60" />
		<rect x="235" y="0" width="2" height="60" />
		<rect x="239" y="0" width="1" height="60" />
		<rect x="242" y="0" width="2" height="60" />
		<rect x="246" y="0" width="2" height="60" />
		<rect x="249" y="0" width="2" height="60" />
		<rect x="253" y="0" width="3" height="60" />
		<rect x="257" y="0" width="1" height="60" />
		<rect x="259" y="0" width="4" height="60" />
		<rect x="264" y="0" width="4" height="60" />
		<rect x="269" y="0" width="3" height="60" />
		<rect x="273" y="0" width="1" height="60" />
		<rect x="275" y="0" width="1" height="60" />
		<rect x="277" y="0" width="3" height="60" />
		<rect x="281" y="0" width="4" height="60" />
		<rect x="286" y="0" width="2" height="60" />
		<rect x="289" y="0" width="2" height="60" />
		<rect x="293" y="0" width="2" height="60" />
		<rect x="297" y="0" width="2" height="60" />
		<rect x="300" y="0" width="2" height="60" />
		<rect x="304" y="0" width="2" height="60" />
		<rect x="308" y="0" width="2" height="60" />
		<rect x="312" y="0" width="2" height="60" />
		<rect x="316" y="0" width="2" height="60" />
		<rect x="319" y="0" width="2" height="60" />
		<rect x="323" y="0" width="2" height="60" />
		<rect x="326" y="0" width="2" height="60" />
		<rect x="330" y="0" width="1" height="60" />
		<rect x="333" y="0" width="2" height="60" />
		<rect x="336" y="0" width="1" height="60" />
		<rect x="341" y="0" width="1" height="60" />
		<rect x="343" y="0" width="2" height="60" />
		<rect x="347" y="0" width="3" height="60" />
		<rect x="352" y="0" width="1" height="60" />
		<rect x="354" y="0" width="1" height="60" />
		<rect x="357" y="0" width="4" height="60" />
		<rect x="363" y="0" width="2" height="60" />
		<rect x="366" y="0" width="2" height="60" />
		<rect x="370" y="0" width="2" height="60" />
		<rect x="374" y="0" width="2" height="60" />
		<rect x="378" y="0" width="2" height="60" />
		<rect x="381" y="0" width="2" height="60" />
		<rect x="385" y="0" width="3" height="60" />
		<rect x="389" y="0" width="1" height="60" />
		<rect x="391" y="0" width="4" height="60" />
		<rect x="396" y="0" width="4" height="60" />
		<rect x="401" y="0" width="3" height="60" />
		<rect x="405" y="0" width="1" height="60" />
		<rect x="407" y="0" width="1" height="60" />
		<rect x="409" y="0" width="4" height="60" />
		<rect x="414" y="0" width="3" height="60" />
		<rect x="418" y="0" width="1" height="60" />
		<rect x="421" y="0" width="3" height="60" />
		<rect x="426" y="0" width="2" height="60" />
		<rect x="429" y="0" width="1" height="60" />
		<rect x="432" y="0" width="3" height="60" />
		<rect x="436" y="0" width="2" height="60" />
		<rect x="440" y="0" width="1" height="60" />
		<rect x="443" y="0" width="3" height="60" />
		<rect x="447" y="0" width="2" height="60" />
		<rect x="451" y="0" width="2" height="60" />
		<rect x="454" y="0" width="2" height="60" />
		<rect x="458" y="0" width="2" height="60" />
		<rect x="462" y="0" width="2" height="60" />
		<rect x="467" y="0" width="3" height="60" />
		<rect x="471" y="0" width="1" height="60" />
		<rect x="473" y="0" width="2" height="60" />
		<rect x="475" y="0" width="0" height="60" />
		<rect x="475" y="0" width="0" height="60" />
	</g>
</svg>
